<svg width="49" height="30" viewBox="0 0 49 30" fill="none" xmlns="http://www.w3.org/2000/svg">
<path d="M11.52 29.48C9.28 29.48 7.13333 29.1867 5.08 28.6C3.02667 27.9867 1.37333 27.2 0.12 26.24L2.32 21.36C3.52 22.2133 4.93333 22.92 6.56 23.48C8.21333 24.0133 9.88 24.28 11.56 24.28C12.84 24.28 13.8667 24.16 14.64 23.92C15.44 23.6533 16.0267 23.2933 16.4 22.84C16.7733 22.3867 16.96 21.8667 16.96 21.28C16.96 20.5333 16.6667 19.9467 16.08 19.52C15.4933 19.0667 14.72 18.7067 13.76 18.44C12.8 18.1467 11.7333 17.88 10.56 17.64C9.41333 17.3733 8.25333 17.0533 7.08 16.68C5.93333 16.3067 4.88 15.8267 3.92 15.24C2.96 14.6533 2.17333 13.88 1.56 12.92C0.973333 11.96 0.68 10.7333 0.68 9.24C0.68 7.64 1.10667 6.18667 1.96 4.88C2.84 3.54666 4.14667 2.49333 5.88 1.72C7.64 0.919999 9.84 0.52 12.48 0.52C14.24 0.52 15.9733 0.733332 17.68 1.16C19.3867 1.56 20.8933 2.17333 22.2 3L20.2 7.92C18.8933 7.17333 17.5867 6.62667 16.28 6.28C14.9733 5.90667 13.6933 5.72 12.44 5.72C11.1867 5.72 10.16 5.86667 9.36 6.16C8.56 6.45333 7.98667 6.84 7.64 7.32C7.29333 7.77333 7.12 8.30667 7.12 8.92C7.12 9.64 7.41333 10.2267 8 10.68C8.58667 11.1067 9.36 11.4533 10.32 11.72C11.28 11.9867 12.3333 12.2533 13.48 12.52C14.6533 12.7867 15.8133 13.0933 16.96 13.44C18.1333 13.7867 19.2 14.2533 20.16 14.84C21.12 15.4267 21.8933 16.2 22.48 17.16C23.0933 18.12 23.4 19.3333 23.4 20.8C23.4 22.3733 22.96 23.8133 22.08 25.12C21.2 26.4267 19.88 27.48 18.12 28.28C16.3867 29.08 14.1867 29.48 11.52 29.48ZM37.0278 29.48C34.7878 29.48 32.6411 29.1867 30.5878 28.6C28.5345 27.9867 26.8811 27.2 25.6278 26.24L27.8278 21.36C29.0278 22.2133 30.4411 22.92 32.0678 23.48C33.7211 24.0133 35.3878 24.28 37.0678 24.28C38.3478 24.28 39.3745 24.16 40.1478 23.92C40.9478 23.6533 41.5345 23.2933 41.9078 22.84C42.2811 22.3867 42.4678 21.8667 42.4678 21.28C42.4678 20.5333 42.1745 19.9467 41.5878 19.52C41.0011 19.0667 40.2278 18.7067 39.2678 18.44C38.3078 18.1467 37.2411 17.88 36.0678 17.64C34.9211 17.3733 33.7611 17.0533 32.5878 16.68C31.4411 16.3067 30.3878 15.8267 29.4278 15.24C28.4678 14.6533 27.6811 13.88 27.0678 12.92C26.4811 11.96 26.1878 10.7333 26.1878 9.24C26.1878 7.64 26.6145 6.18667 27.4678 4.88C28.3478 3.54666 29.6545 2.49333 31.3878 1.72C33.1478 0.919999 35.3478 0.52 37.9878 0.52C39.7478 0.52 41.4811 0.733332 43.1878 1.16C44.8945 1.56 46.4011 2.17333 47.7078 3L45.7078 7.92C44.4011 7.17333 43.0945 6.62667 41.7878 6.28C40.4811 5.90667 39.2011 5.72 37.9478 5.72C36.6945 5.72 35.6678 5.86667 34.8678 6.16C34.0678 6.45333 33.4945 6.84 33.1478 7.32C32.8011 7.77333 32.6278 8.30667 32.6278 8.92C32.6278 9.64 32.9211 10.2267 33.5078 10.68C34.0945 11.1067 34.8678 11.4533 35.8278 11.72C36.7878 11.9867 37.8411 12.2533 38.9878 12.52C40.1611 12.7867 41.3211 13.0933 42.4678 13.44C43.6411 13.7867 44.7078 14.2533 45.6678 14.84C46.6278 15.4267 47.4011 16.2 47.9878 17.16C48.6011 18.12 48.9078 19.3333 48.9078 20.8C48.9078 22.3733 48.4678 23.8133 47.5878 25.12C46.7078 26.4267 45.3878 27.48 43.6278 28.28C41.8945 29.08 39.6945 29.48 37.0278 29.48Z" fill="#946CEE"/>
</svg>
